<svg width="100" height="34" viewBox="0 0 100 34" fill="none" xmlns="http://www.w3.org/2000/svg">
<path d="M8.54688 24.375V8.375H3.125V4.625H18.4375V8.375H13.0281V24.375H8.54688Z" fill="#1D1D1B"/>
<path d="M21.3563 30.2406C20.9612 30.2451 20.5664 30.22 20.1751 30.1656C19.8571 30.1139 19.5437 30.0377 19.2376 29.9375L20.0251 26.5625C20.1657 26.6 20.3376 26.6406 20.5094 26.6812C20.6785 26.7209 20.8514 26.7419 21.0251 26.7437C21.6484 26.7854 22.2646 26.5901 22.7501 26.1968C23.1697 25.8084 23.4828 25.3188 23.6594 24.775L23.8719 23.9875L18.0876 9.34372H22.5688L24.7188 15.7937C24.9417 16.4812 25.1438 17.1781 25.3251 17.8843C25.5063 18.5906 25.698 19.3198 25.9001 20.0718H26.0219C26.1813 19.3656 26.3344 18.6531 26.5219 17.9343C26.7094 17.2156 26.8688 16.5093 27.0501 15.8L28.8688 9.34372H33.1251L27.9282 24.5156C27.6071 25.3737 27.2281 26.2089 26.7938 27.0156C26.4393 27.6812 25.9792 28.2849 25.4313 28.8031C24.9221 29.2724 24.3253 29.6366 23.6751 29.875C22.9299 30.1331 22.1448 30.2569 21.3563 30.2406Z" fill="#1D1D1B"/>
<path d="M34.7125 29.9375V9.34373H38.3468L38.6593 10.8281H38.7812C39.3751 10.2959 40.0423 9.85178 40.7625 9.50935C41.4752 9.16249 42.2573 8.98191 43.05 8.98123C43.899 8.96789 44.7392 9.15414 45.5031 9.52498C46.2305 9.88871 46.863 10.4173 47.35 11.0687C47.8825 11.7939 48.2775 12.6105 48.5156 13.4781C48.7998 14.495 48.9376 15.5473 48.925 16.6031C48.9434 17.7705 48.7649 18.9326 48.3968 20.0406C48.0823 20.9689 47.5992 21.8313 46.9718 22.5844C46.4148 23.2501 45.7237 23.791 44.9437 24.1719C44.2132 24.5303 43.4106 24.7174 42.5968 24.7187C41.9498 24.7174 41.3105 24.5778 40.7218 24.3094C40.0927 24.0226 39.5184 23.6281 39.025 23.1437L39.1781 25.5375V29.9125L34.7125 29.9375ZM41.5625 21.0937C41.9501 21.0896 42.3311 20.9926 42.6736 20.811C43.0162 20.6294 43.3102 20.3685 43.5312 20.05C44.0791 19.3541 44.352 18.2281 44.35 16.6719C44.35 13.9635 43.4812 12.6094 41.7437 12.6094C40.875 12.6094 40.0177 13.0635 39.1718 13.9719V20.125C39.521 20.4546 39.932 20.7117 40.3812 20.8812C40.7602 21.0181 41.1596 21.0899 41.5625 21.0937Z" fill="#1D1D1B"/>
<path d="M58.0313 24.7281C57.0082 24.7358 55.9925 24.5558 55.0344 24.1969C54.1274 23.8585 53.3021 23.3325 52.6125 22.6531C51.9094 21.9524 51.362 21.1112 51.0063 20.1844C50.6054 19.1204 50.4103 17.9899 50.4313 16.8531C50.414 15.729 50.6201 14.6126 51.0375 13.5687C51.4021 12.6416 51.941 11.793 52.625 11.0687C53.2654 10.4027 54.0325 9.87142 54.8813 9.50625C55.7427 9.14696 56.6667 8.96198 57.6 8.96198C58.5334 8.96198 59.4574 9.14696 60.3188 9.50625C61.0925 9.85204 61.7767 10.3705 62.3188 11.0219C62.8676 11.6944 63.2737 12.4717 63.5125 13.3062C63.7822 14.2362 63.9148 15.2005 63.9063 16.1687C63.9078 16.5529 63.888 16.9368 63.8469 17.3187C63.8201 17.5935 63.7794 17.8668 63.725 18.1375H54.7313C54.9396 19.2292 55.3886 20.0323 56.0782 20.5469C56.8246 21.0758 57.7232 21.3468 58.6375 21.3187C59.7869 21.2984 60.9078 20.9587 61.875 20.3375L63.3594 23.0312C62.5712 23.5694 61.7091 23.9904 60.8 24.2812C59.9062 24.5743 58.9719 24.7251 58.0313 24.7281ZM54.6875 15.2187H60.1094C60.1438 14.4884 59.9421 13.7663 59.5344 13.1594C59.149 12.6344 58.5032 12.3719 57.5969 12.3719C56.9065 12.3599 56.237 12.6088 55.7219 13.0687C55.2094 13.5344 54.8625 14.25 54.6875 15.2187Z" fill="#1D1D1B"/>
<path d="M71.5999 24.7281C70.7234 24.7422 69.8554 24.5551 69.0624 24.1812C68.3034 23.8176 67.639 23.2828 67.1218 22.6187C66.5534 21.883 66.1293 21.0465 65.8718 20.1531C65.5649 19.0795 65.4175 17.9665 65.4343 16.85C65.416 15.7276 65.5947 14.6106 65.9624 13.55C66.2768 12.6509 66.7487 11.8149 67.3562 11.0812C67.9044 10.4243 68.5861 9.89167 69.3562 9.51875C70.077 9.16481 70.8688 8.9789 71.6718 8.975C72.3923 8.94825 73.1088 9.09283 73.7624 9.39687C74.3444 9.70904 74.8833 10.0956 75.3656 10.5469L75.1843 8.24687V3.125H79.6562V24.375H76.0218L75.7093 22.8906H75.5874C75.0492 23.422 74.4287 23.8631 73.7499 24.1969C73.0849 24.5402 72.3484 24.7222 71.5999 24.7281ZM72.7499 21.0938C73.2083 21.0978 73.6609 20.9905 74.0687 20.7812C74.5251 20.5226 74.9138 20.1595 75.2031 19.7219V13.5844C74.8432 13.2477 74.4177 12.9892 73.9531 12.825C73.5505 12.6881 73.1283 12.6174 72.7031 12.6156C72.3332 12.6264 71.971 12.7237 71.6455 12.8995C71.3199 13.0753 71.04 13.3248 70.8281 13.6281C70.2822 14.3073 70.0093 15.3625 70.0093 16.7938C70.0093 18.2875 70.2468 19.3781 70.7218 20.0656C70.9422 20.3976 71.2449 20.6668 71.6004 20.847C71.9558 21.0272 72.3519 21.1122 72.7499 21.0938Z" fill="#1D1D1B"/>
<path d="M94.3968 3.125V12.7937C94.396 12.9236 94.3441 13.0479 94.2522 13.1398C94.1604 13.2316 94.0361 13.2836 93.9062 13.2844H88.2812V10.6656L84.3218 14.6094L88.2687 18.5563V15.7625H93.8937C94.6808 15.7617 95.4355 15.4486 95.992 14.8921C96.5486 14.3355 96.8616 13.5809 96.8625 12.7937V3.125H94.3968Z" fill="#9D9D9C"/>
</svg>
